# xmcd CD database file
#
# Track frame offsets:
#	150
#	11499
#	21767
#	57234
#	89521
#	104657
#	119637
#	129732
#	162285
#	190558
#	219836
#	238973
#
# Disc length: 3379 seconds
#
# Revision: 2
# Processed by: cddbd v1.4b41PL1 Copyright (c) Steve Scherf et al.
# Submitted via: Feurio! 1.50.2ß - http://www.feurio.com
#
DISCID=a50d310c
DTITLE=The Doors - Greatest Hits
DYEAR=1900
DGENRE=
TTITLE0=Break On Though
TTITLE1=Hello, I Love You
TTITLE2=L.A. Woman
TTITLE3=Light My Fire
TTITLE4=Love Her Madly
TTITLE5=Love Me Two Times
TTITLE6=People Are Strange
TTITLE7=Riders On The Storm
TTITLE8=Roadhouse Blues(live)
TTITLE9=The End
TTITLE10=The Ghost Song
TTITLE11=Touch Me
EXTD=
EXTT0=
EXTT1=
EXTT2=
EXTT3=
EXTT4=
EXTT5=
EXTT6=
EXTT7=
EXTT8=
EXTT9=
EXTT10=
EXTT11=
PLAYORDER=
